<?xml version="1.0" standalone="no"?>
<!DOCTYPE svg PUBLIC "-//W3C//DTD SVG 20010904//EN"
 "http://www.w3.org/TR/2001/REC-SVG-20010904/DTD/svg10.dtd">
<svg version="1.0" xmlns="http://www.w3.org/2000/svg"
 width="1024.000000pt" height="1024.000000pt" viewBox="0 0 1024.000000 1024.000000"
 preserveAspectRatio="xMidYMid meet">

<g transform="translate(0.000000,1024.000000) scale(0.100000,-0.100000)"
fill="#000000" stroke="none">
<path d="M4950 9180 c-391 -49 -701 -196 -862 -409 -49 -65 -129 -216 -152
-287 -16 -50 -18 -51 -70 -63 -60 -13 -126 -63 -153 -115 -23 -44 -23 -142 0
-188 10 -20 36 -48 57 -63 l38 -26 -32 -48 c-18 -26 -48 -86 -66 -132 -18 -46
-53 -111 -76 -145 -24 -33 -59 -94 -78 -135 -95 -201 -85 -360 34 -506 64 -79
128 -112 233 -120 l75 -6 18 -45 c21 -57 82 -124 151 -169 l53 -33 -34 -48
c-39 -56 -144 -243 -182 -325 -19 -43 -25 -68 -21 -94 4 -23 -1 -52 -13 -84
-36 -90 -23 -191 33 -251 59 -64 165 -85 232 -46 62 36 86 80 84 153 -2 51 3
70 32 125 l33 65 13 -136 c18 -194 29 -220 106 -243 14 -4 17 -17 18 -68 0
-35 4 -97 8 -138 8 -74 8 -75 -22 -105 -39 -39 -57 -83 -57 -142 0 -73 25
-114 82 -132 l47 -16 -32 -50 c-18 -28 -74 -105 -125 -173 l-93 -122 -604 0
c-592 0 -605 0 -625 -20 -27 -27 -26 -75 2 -94 20 -14 88 -16 533 -17 280 0
527 -3 549 -7 l38 -7 -83 -110 c-105 -140 -342 -457 -383 -512 l-31 -42 -647
-1 c-634 0 -648 0 -668 -20 -29 -29 -26 -74 6 -99 26 -21 35 -21 615 -21 l589
0 -29 -41 c-17 -22 -31 -45 -33 -50 -2 -5 -33 -16 -70 -24 -90 -19 -206 -74
-285 -136 -35 -28 -66 -49 -67 -47 -1 2 -9 18 -16 37 -33 83 -110 135 -198
133 -67 -2 -325 -30 -345 -38 -8 -3 -34 7 -58 23 -42 28 -45 28 -188 28 -80 0
-310 -6 -511 -14 -424 -16 -440 -19 -513 -101 -72 -80 -79 -138 -52 -430 19
-202 25 -224 89 -286 63 -61 122 -80 215 -69 l58 7 7 -44 c3 -23 13 -128 21
-233 29 -353 37 -390 98 -453 42 -44 97 -72 155 -79 37 -4 82 5 212 42 91 26
181 56 200 65 44 23 82 63 108 114 18 36 20 38 26 18 10 -31 93 -100 135 -112
55 -15 131 -12 275 11 155 24 221 51 266 107 l32 40 61 -39 c85 -55 230 -100
343 -106 208 -12 399 61 551 210 34 33 64 59 65 56 2 -2 12 -22 23 -44 28 -54
92 -101 160 -115 60 -12 221 1 280 24 23 9 43 9 85 0 115 -25 204 -13 277 37
l45 31 32 -31 c42 -41 82 -52 192 -52 99 0 176 14 211 37 21 13 27 12 64 -7
172 -87 425 -39 559 108 28 30 50 59 50 64 0 5 14 9 30 9 l30 0 0 -72 c1 -82
16 -132 54 -182 29 -38 98 -75 154 -83 34 -5 283 33 383 58 61 15 117 64 148
128 l27 58 54 -54 c132 -133 365 -216 559 -198 82 7 192 40 273 81 45 23 52
24 60 10 25 -45 94 -67 450 -143 219 -47 378 -75 418 -76 140 -2 242 88 271
236 18 98 49 318 49 355 0 54 -17 108 -44 139 -22 26 -23 30 -10 55 8 15 17
49 20 75 4 29 16 58 29 73 46 51 52 76 80 313 18 156 19 197 3 251 -17 58 -90
129 -148 143 -46 12 -555 38 -736 38 -93 0 -104 -2 -142 -28 -23 -15 -54 -48
-69 -76 l-28 -48 -54 48 c-98 87 -282 159 -409 159 -85 0 -217 -31 -298 -69
l-81 -39 -28 35 c-40 51 -84 65 -190 65 -143 -1 -156 2 -187 54 l-27 44 635 0
635 0 24 25 c31 30 32 65 2 93 l-23 22 -680 0 -679 0 -46 63 c-25 34 -97 132
-159 217 -63 85 -152 207 -199 270 -47 63 -87 118 -89 122 -2 4 288 8 644 8
586 0 649 2 666 17 25 22 23 65 -5 91 l-23 22 -690 0 -689 1 -71 97 c-40 53
-98 135 -129 181 -51 75 -55 85 -42 99 14 14 23 12 84 -20 134 -70 295 -105
380 -82 22 6 63 63 63 89 0 7 86 187 191 399 191 384 192 386 223 386 49 1
107 33 159 89 58 62 82 113 98 208 11 69 11 74 -14 121 l-26 50 125 244 c96
184 126 253 127 283 1 22 -9 110 -20 195 -12 85 -24 218 -27 294 -5 110 -10
143 -23 158 -30 34 -65 22 -174 -57 -57 -42 -130 -93 -162 -115 -55 -38 -59
-39 -64 -20 -11 42 -74 163 -121 234 -27 39 -57 94 -66 122 -9 27 -34 85 -56
129 l-39 80 28 25 c50 44 71 89 71 153 0 63 -19 119 -53 156 -29 31 -94 61
-134 61 -30 0 -33 3 -48 57 -18 62 -82 196 -117 246 -43 63 -164 180 -233 227
-158 107 -333 176 -531 210 -138 24 -356 33 -464 20z m347 -85 c330 -43 580
-156 746 -336 56 -61 106 -129 93 -129 -3 0 -33 24 -66 54 -212 184 -609 297
-1000 283 -398 -14 -734 -121 -919 -293 -34 -31 -61 -53 -61 -50 0 17 60 98
114 154 131 137 344 244 584 292 201 41 332 48 509 25z m-103 -1058 c3 -13 20
-41 37 -63 70 -88 183 -134 333 -134 89 0 269 25 396 54 l64 15 86 -88 c47
-48 94 -104 103 -124 16 -33 17 -71 15 -379 l-3 -343 -26 -56 c-37 -79 -90
-126 -205 -184 -54 -27 -155 -81 -224 -119 -168 -93 -267 -139 -391 -180 -312
-104 -529 -63 -959 179 -41 23 -122 68 -180 100 -165 92 -195 116 -232 193
l-33 67 0 398 0 399 46 42 c25 23 74 56 107 74 l61 33 93 -25 c260 -71 497
-73 627 -6 38 19 103 83 140 138 21 30 26 32 81 32 52 0 58 -2 64 -23z m-1164
-50 l60 -34 -110 -73 c-61 -41 -123 -87 -137 -104 -50 -59 -169 -336 -208
-484 -12 -45 -24 -85 -28 -88 -3 -3 -13 20 -23 51 -16 49 -16 65 -6 125 15 87
43 152 122 275 34 54 75 130 92 169 56 136 101 196 148 196 16 0 57 -15 90
-33z m2285 27 c26 -11 70 -83 123 -207 28 -65 67 -140 87 -168 46 -64 90 -151
105 -208 10 -38 9 -45 -7 -56 -10 -7 -29 -22 -43 -33 l-24 -19 -27 83 c-33
104 -108 257 -149 307 -18 20 -86 78 -152 127 -97 72 -117 91 -102 96 64 21
101 38 128 59 34 27 37 28 61 19z m730 -612 c-8 -8 -120 43 -120 55 0 6 25 31
55 55 l55 45 8 -75 c4 -41 5 -77 2 -80z m-141 29 c10 -16 115 -71 136 -71 16
0 20 -7 20 -33 0 -18 7 -83 16 -145 8 -61 14 -131 12 -154 l-3 -43 -46 2 c-25
2 -70 14 -100 27 -32 16 -62 23 -76 20 -29 -8 -50 9 -58 47 -6 25 -11 29 -40
29 -43 0 -65 9 -65 26 0 10 -12 14 -40 14 -36 0 -41 4 -60 39 l-20 39 68 50
c136 99 227 161 239 162 6 0 14 -4 17 -9z m-340 -383 c-43 -105 -570 -1165
-583 -1172 -15 -10 -16 -12 184 409 325 684 410 853 418 839 4 -8 -3 -39 -19
-76z m251 -68 c3 -5 -185 -387 -419 -849 -234 -461 -426 -844 -426 -850 0 -12
-23 -15 -33 -5 -10 11 849 1714 864 1714 4 0 11 -4 14 -10z m-435 -47 c1 -13
-183 -393 -189 -393 -3 0 -22 34 -42 76 l-36 77 67 66 c47 47 73 83 90 124 24
57 24 57 67 57 24 0 43 -3 43 -7z m-360 -277 c0 -2 -7 -7 -16 -10 -8 -3 -12
-2 -9 4 6 10 25 14 25 6z m60 -100 c10 -22 30 -59 43 -81 l25 -40 -77 -153
-77 -153 -40 101 c-23 56 -35 95 -27 88 13 -11 14 -2 8 67 -3 44 -11 91 -18
103 -9 19 -8 25 3 32 8 5 40 27 70 48 30 22 59 37 63 35 5 -3 17 -24 27 -47z
m-1860 -21 c47 -109 47 -111 -5 -230 -26 -59 -50 -126 -53 -147 -2 -21 -9 -41
-14 -44 -27 -17 -178 91 -178 128 0 21 99 215 157 306 30 47 35 51 54 42 11
-6 29 -31 39 -55z m195 -101 c15 -17 258 -119 382 -160 233 -78 522 -51 823
78 52 22 112 43 133 46 l37 5 -1 -69 c-1 -119 -24 -432 -32 -440 -16 -17 -544
-35 -832 -29 -274 6 -511 18 -520 27 -8 8 -35 372 -35 475 0 111 2 115 45 67z
m1235 22 c0 -2 -7 -7 -16 -10 -8 -3 -12 -2 -9 4 6 10 25 14 25 6z m1162 -55
c80 -38 92 -114 31 -201 -44 -62 -76 -87 -119 -96 -27 -5 -38 0 -71 29 -64 58
-93 173 -48 191 9 3 34 -3 55 -14 56 -29 60 -25 18 15 -42 38 -47 59 -21 88
23 25 91 20 155 -12z m-1595 -97 c-3 -3 -12 -4 -19 -1 -8 3 -5 6 6 6 11 1 17
-2 13 -5z m-86 -16 c-29 -6 -40 -13 -31 -18 18 -11 -18 -21 -64 -18 -26 1 -33
5 -25 14 7 9 2 15 -18 22 -22 8 -6 10 77 10 92 0 100 -1 61 -10z m788 -178
l32 -75 -104 -214 c-57 -118 -106 -210 -109 -205 -3 5 -2 49 1 99 l6 89 34 7
c18 4 40 14 48 22 21 20 32 80 33 168 0 98 11 202 20 192 4 -4 21 -42 39 -83z
m-1905 -7 c28 -21 57 -45 64 -55 7 -10 19 -15 28 -11 37 14 47 -67 12 -104
-29 -31 -104 -32 -143 -1 -36 28 -56 78 -49 120 7 39 24 88 31 88 3 0 28 -17
57 -37z m623 -321 c-17 -18 -22 -20 -72 -23 -17 -1 -25 -7 -25 -20 0 -17 9
-19 93 -19 85 0 97 -3 159 -34 36 -19 69 -32 72 -29 3 4 6 -24 6 -60 0 -37 -3
-67 -6 -67 -4 0 -21 9 -39 20 -74 46 -203 59 -282 29 -13 -5 -23 -7 -24 -6 0
1 -4 53 -7 115 l-7 112 74 0 c71 0 73 -1 58 -18z m140 1 c-20 -2 -52 -2 -70 0
-17 2 0 4 38 4 39 0 53 -2 32 -4z m444 -125 c0 -51 6 -156 12 -232 11 -131 13
-140 38 -158 29 -22 142 -53 228 -63 l60 -7 121 -166 122 -167 -341 -3 c-188
-1 -494 -1 -680 0 l-339 3 89 120 c49 66 101 141 116 166 27 46 29 47 95 58
155 26 208 63 208 148 0 21 5 118 12 216 l11 177 124 0 123 0 1 -92z m673 36
c-38 -85 -63 -132 -74 -139 -6 -4 12 39 40 94 55 110 74 135 34 45z m-1017 14
c-3 -7 -5 -2 -5 12 0 14 2 19 5 13 2 -7 2 -19 0 -25z m773 -51 l0 -78 -37 7
c-93 18 -193 2 -257 -41 -20 -14 -39 -25 -41 -25 -3 0 -5 30 -5 68 l1 67 57
28 c66 33 154 53 229 52 l53 0 0 -78z m111 -238 c-25 -41 -28 -23 -3 27 10 22
18 31 20 22 2 -9 -6 -31 -17 -49z m231 -815 c49 -66 125 -168 169 -229 43 -60
113 -157 154 -214 42 -57 74 -105 72 -107 -2 -2 -578 -3 -1280 -2 l-1276 3
162 215 c89 118 204 270 255 337 l92 122 781 -3 781 -4 90 -118z m532 -740
l39 -46 -269 7 c-299 8 -307 7 -378 -55 -55 -48 -77 -100 -83 -192 -3 -43 -8
-78 -10 -78 -2 0 -16 6 -31 14 -15 8 -52 17 -82 21 -130 16 -286 -41 -390
-143 l-61 -59 -15 35 c-7 19 -14 37 -14 41 0 17 -66 84 -102 102 -33 17 -56
20 -139 18 -99 -2 -101 -1 -132 29 -18 16 -42 35 -54 41 -33 17 -731 23 -762
7 -21 -12 -28 -8 -79 41 -66 64 -190 129 -277 145 l-60 12 50 52 50 52 1380 1
1380 0 39 -45z m104 -170 c350 -7 363 -8 374 -27 18 -34 2 -114 -30 -155 -16
-20 -44 -65 -63 -98 -33 -61 -34 -62 -84 -68 -27 -3 -74 -6 -102 -6 l-53 0 0
-62 c0 -62 24 -428 36 -561 6 -66 6 -67 -16 -59 -13 5 -61 3 -114 -4 -115 -17
-189 -17 -204 -2 -8 8 -12 47 -12 108 0 97 -7 143 -19 135 -4 -2 -5 96 -3 218
l4 222 -163 0 -164 0 -3 169 c-3 219 -9 211 143 202 61 -3 273 -9 473 -12z
m-2934 -30 c96 -27 201 -105 238 -177 l20 -40 -78 -75 c-111 -106 -139 -125
-167 -118 -13 3 -29 17 -35 30 -16 35 -81 66 -140 66 -141 0 -241 -128 -211
-270 21 -97 91 -158 190 -168 66 -6 115 14 174 69 l50 48 119 -65 c66 -35 121
-66 124 -69 12 -11 -18 -46 -83 -99 -129 -103 -259 -156 -382 -156 -173 0
-385 114 -454 245 -22 42 -24 43 -35 24 -10 -19 -13 -14 -29 42 -23 84 -31
219 -16 292 39 183 201 355 396 417 91 30 223 31 319 4z m3937 10 c185 -55
326 -197 374 -379 40 -156 -2 -395 -86 -485 -13 -14 -26 -30 -29 -35 -3 -5
-13 -11 -22 -12 -9 -2 -45 -21 -79 -43 -128 -83 -313 -111 -467 -71 -45 11
-96 21 -114 21 -34 1 -73 22 -61 33 3 4 1 7 -5 7 -7 0 -12 6 -12 13 0 18 -75
89 -84 80 -4 -5 -6 -1 -5 7 5 21 -28 67 -51 73 -13 3 -17 0 -14 -12 2 -9 -3
-1 -11 18 -9 18 -14 40 -11 48 3 8 2 12 -3 9 -14 -9 -34 161 -27 229 24 234
200 437 431 500 70 19 210 18 276 -1z m-5276 -14 c16 -18 16 -25 1 -142 -24
-174 -30 -195 -64 -202 -29 -6 -240 -36 -254 -36 -11 0 -1 -62 82 -548 21
-117 24 -160 14 -149 -3 3 -27 -1 -52 -9 -123 -38 -223 -64 -246 -64 -14 0
-29 8 -35 18 -5 9 -16 74 -25 145 -9 70 -21 151 -26 179 -10 52 -19 73 -21 47
0 -8 -4 -4 -9 7 -5 12 -14 84 -20 160 -6 77 -13 148 -15 159 -4 21 -5 21 -152
4 -196 -23 -184 -34 -207 186 -10 91 -15 173 -12 182 13 39 38 43 366 54 266
9 428 16 631 28 15 0 34 -8 44 -19z m508 -18 c15 -17 16 -42 7 -278 -16 -419
-20 -513 -28 -618 l-7 -100 -30 -8 c-16 -4 -76 -11 -132 -15 -83 -5 -103 -3
-107 8 -3 8 -10 82 -16 164 -6 83 -11 155 -12 162 -1 6 -7 9 -15 6 -10 -4 -13
11 -13 68 -1 41 -7 184 -15 319 -12 211 -12 247 1 259 9 10 63 21 151 32 186
22 197 22 216 1z m5767 -23 l285 -11 24 -26 c20 -22 22 -32 17 -76 -18 -145
-30 -200 -50 -223 l-21 -25 -120 16 c-267 36 -305 40 -310 34 -4 -3 -9 -31
-12 -61 -4 -38 -2 -57 7 -62 17 -10 218 -34 291 -35 74 0 84 -12 75 -93 -9
-76 -27 -107 -64 -107 -15 0 -91 9 -170 21 -79 11 -149 18 -157 16 -8 -4 -16
-29 -20 -64 -4 -32 -9 -66 -11 -75 -4 -13 4 -18 43 -23 140 -18 397 -65 407
-75 11 -11 11 -89 0 -173 -5 -39 -12 -52 -41 -74 l-35 -27 -141 33 c-78 18
-230 51 -337 72 -197 40 -226 52 -216 88 8 26 36 194 36 214 0 11 -4 15 -12
11 -8 -5 -9 2 -4 27 19 99 36 288 40 478 4 148 10 219 18 229 10 12 30 13 103
9 49 -4 218 -11 375 -18z m-4192 -134 c194 -1 306 -5 313 -12 7 -7 7 -22 0
-49 -6 -22 -13 -69 -17 -105 l-7 -67 -36 -6 c-20 -3 -66 -6 -103 -6 l-68 0 1
-72 c0 -40 6 -152 13 -248 7 -96 12 -176 11 -177 0 -1 -49 -5 -109 -9 -120 -8
-125 -6 -127 56 l-2 35 -8 -35 c-4 -20 -6 67 -4 203 l4 238 -110 -2 c-60 -1
-111 -1 -113 2 -2 2 -6 57 -10 121 -7 113 -6 117 16 132 13 9 30 13 38 9 8 -3
151 -7 318 -8z m645 -92 c8 -10 30 -61 48 -113 43 -126 175 -456 200 -498 10
-18 19 -35 19 -38 0 -2 -26 -4 -57 -5 -32 0 -52 -3 -44 -6 19 -8 -43 -33 -80
-33 -29 0 -40 15 -16 23 6 2 0 4 -15 4 -30 1 -36 -14 -15 -37 10 -12 9 -12 -4
-2 -9 7 -24 46 -34 87 l-17 75 -97 0 -96 0 -23 -64 c-13 -35 -29 -72 -37 -82
-13 -17 -14 -17 -9 -1 8 21 -2 22 -22 2 -19 -18 -42 -19 -117 -1 -80 19 -86
27 -54 74 23 36 161 372 217 532 13 36 28 70 33 77 5 7 39 14 75 16 37 2 81 4
98 5 19 1 37 -5 47 -15z m714 -13 c54 -23 143 -107 143 -134 0 -17 -84 -87
-133 -113 -30 -15 -31 -15 -57 17 -22 27 -35 33 -76 37 -93 8 -150 -54 -142
-154 6 -72 44 -113 111 -120 62 -7 95 3 129 39 l29 31 84 -43 84 -43 -14 -27
c-15 -29 -99 -110 -115 -110 -5 0 -10 -8 -10 -18 0 -12 -7 -18 -20 -18 -10 1
-20 -3 -20 -9 -4 -33 -115 -52 -206 -35 -115 22 -195 97 -244 227 -62 166 -14
344 116 434 103 71 233 86 341 39z m-1617 -282 c0 -24 -4 -49 -8 -56 -6 -9
-45 -13 -131 -15 -121 -2 -124 -2 -132 21 -11 27 -12 76 -2 85 3 4 66 7 140 7
l133 0 0 -42z m2040 -73 c0 -80 -7 -85 -126 -85 -81 0 -90 2 -115 26 -23 22
-27 32 -22 63 9 64 2 61 138 61 l125 0 0 -65z m784 -200 c-5 -11 -1 -14 12 -9
13 4 15 3 7 -3 -9 -7 -8 -16 7 -41 11 -18 18 -32 15 -32 -10 0 -55 81 -50 90
9 15 15 12 9 -5z m-1134 -69 c0 -2 -8 -10 -17 -17 -16 -13 -17 -12 -4 4 13 16
21 21 21 13z m-603 -62 c-3 -3 -12 -4 -19 -1 -8 3 -5 6 6 6 11 1 17 -2 13 -5z
m-70 -10 c-3 -3 -12 -4 -19 -1 -8 3 -5 6 6 6 11 1 17 -2 13 -5z m1993 -60 c0
-2 -9 0 -20 6 -11 6 -20 13 -20 16 0 2 9 0 20 -6 11 -6 20 -13 20 -16z m-523
-30 c-3 -3 -12 -4 -19 -1 -8 3 -5 6 6 6 11 1 17 -2 13 -5z m-94 -11 c-7 -2
-19 -2 -25 0 -7 3 -2 5 12 5 14 0 19 -2 13 -5z m-3156 -9 c-3 -3 -12 -4 -19
-1 -8 3 -5 6 6 6 11 1 17 -2 13 -5z m3090 0 c-3 -3 -12 -4 -19 -1 -8 3 -5 6 6
6 11 1 17 -2 13 -5z"/>
<path d="M4313 7684 c-13 -14 -23 -30 -21 -37 2 -7 37 -23 77 -36 70 -23 72
-25 64 -50 -15 -51 -9 -128 13 -158 69 -92 186 -97 255 -9 29 36 37 112 16
152 -38 73 -89 99 -271 139 l-108 23 -25 -24z m326 -149 c45 -23 55 -69 21
-100 -19 -17 -21 -17 -39 -1 -31 28 -45 70 -31 95 13 25 13 25 49 6z"/>
<path d="M5710 7679 c-103 -28 -193 -71 -217 -105 -73 -104 -37 -217 76 -244
138 -33 251 95 197 224 l-14 33 49 11 c56 13 99 38 99 58 0 21 -42 44 -80 43
-19 0 -69 -9 -110 -20z m-103 -145 c3 -9 -1 -29 -11 -44 -9 -16 -16 -35 -16
-43 0 -25 -27 -42 -45 -27 -24 20 -18 70 12 102 30 32 51 36 60 12z"/>
<path d="M4911 7095 c-86 -99 -147 -301 -125 -415 9 -44 29 -48 59 -12 14 17
42 37 63 44 50 17 294 17 344 0 37 -13 84 -63 71 -76 -3 -3 -115 -6 -247 -7
-226 0 -239 -1 -201 -16 90 -33 367 -33 448 1 59 24 71 53 63 152 -10 131 -60
257 -134 337 l-26 27 -142 0 -142 0 -31 -35z m293 5 c17 -16 9 -64 -14 -82
-32 -26 -190 -26 -212 0 -23 26 -30 68 -15 84 15 15 225 13 241 -2z"/>
<path d="M4548 4643 c7 -3 16 -2 19 1 4 3 -2 6 -13 5 -11 0 -14 -3 -6 -6z"/>
<path d="M4484 4608 l-19 -23 23 19 c12 11 22 21 22 23 0 8 -8 2 -26 -19z"/>
<path d="M5731 4603 c7 -12 15 -20 18 -17 3 2 -3 12 -13 22 -17 16 -18 16 -5
-5z"/>
<path d="M4460 4571 c0 -9 30 -24 36 -18 2 1 -6 8 -16 15 -11 7 -20 8 -20 3z"/>
<path d="M5710 4554 c-17 -9 -20 -14 -9 -14 9 0 22 7 29 15 15 18 13 18 -20
-1z"/>
<path d="M5578 4343 c7 -3 16 -2 19 1 4 3 -2 6 -13 5 -11 0 -14 -3 -6 -6z"/>
<path d="M5238 4313 c7 -3 16 -2 19 1 4 3 -2 6 -13 5 -11 0 -14 -3 -6 -6z"/>
<path d="M5944 4237 c23 -17 11 -44 -28 -62 -24 -12 -25 -13 -6 -9 38 9 63 38
55 63 -3 11 -14 21 -23 21 -14 0 -14 -1 2 -13z"/>
<path d="M5818 4143 c6 -2 18 -2 25 0 6 3 1 5 -13 5 -14 0 -19 -2 -12 -5z"/>
<path d="M7400 3344 c-103 -45 -155 -178 -119 -307 12 -43 59 -102 98 -121
129 -66 286 24 307 175 8 57 -11 148 -39 191 -46 68 -164 98 -247 62z m99
-198 c7 -8 11 -36 9 -63 -3 -41 -6 -48 -26 -51 -13 -2 -30 2 -38 8 -17 15 -19
91 -2 108 16 16 43 15 57 -2z"/>
<path d="M4947 3101 c-15 -40 -27 -78 -27 -84 0 -14 96 -21 104 -8 3 5 -7 43
-23 86 l-28 77 -26 -71z"/>
<path d="M2690 5559 c0 -49 30 -66 82 -45 29 12 35 20 31 36 -3 11 -10 17 -16
13 -6 -4 -8 0 -5 8 5 12 -3 16 -33 18 -26 1 -39 -2 -39 -11 0 -9 -3 -9 -10 2
-7 11 -10 6 -10 -21z"/>
<path d="M3650 5586 c0 -2 8 -10 18 -17 15 -13 16 -12 3 4 -13 16 -21 21 -21
13z"/>
<path d="M7585 5573 c-45 -7 -74 -38 -66 -71 9 -33 50 -41 86 -18 16 10 35 14
54 10 29 -6 31 -5 31 24 0 45 -37 65 -105 55z"/>
<path d="M4053 5433 c15 -2 37 -2 50 0 12 2 0 4 -28 4 -27 0 -38 -2 -22 -4z"/>
<path d="M3760 5419 c-58 -5 -112 -11 -120 -13 -19 -6 184 4 275 14 l70 7 -60
0 c-33 0 -107 -4 -165 -8z"/>
<path d="M6563 5413 c9 -2 23 -2 30 0 6 3 -1 5 -18 5 -16 0 -22 -2 -12 -5z"/>
<path d="M2913 5333 c9 -2 23 -2 30 0 6 3 -1 5 -18 5 -16 0 -22 -2 -12 -5z"/>
<path d="M2823 5323 c9 -2 25 -2 35 0 9 3 1 5 -18 5 -19 0 -27 -2 -17 -5z"/>
<path d="M2665 5310 c-33 -6 -35 -7 -10 -8 17 0 53 3 80 8 47 7 48 7 10 7 -22
0 -58 -3 -80 -7z"/>
<path d="M7658 5303 c7 -3 16 -2 19 1 4 3 -2 6 -13 5 -11 0 -14 -3 -6 -6z"/>
<path d="M2583 5293 c9 -2 23 -2 30 0 6 3 -1 5 -18 5 -16 0 -22 -2 -12 -5z"/>
<path d="M2993 4655 c-236 -43 -398 -140 -419 -252 -21 -111 78 -201 276 -252
269 -68 673 0 826 140 54 51 74 91 74 152 0 102 -103 175 -298 213 -92 18
-360 17 -459 -1z m387 -120 c148 -22 230 -60 230 -105 0 -42 -113 -109 -237
-141 -317 -81 -744 2 -636 123 27 31 147 85 227 103 162 36 277 42 416 20z"/>
<path d="M7089 2150 c13 -11 29 -20 37 -20 31 0 11 -19 -26 -25 -24 -4 -40
-12 -40 -20 0 -19 39 -45 67 -45 35 0 27 -15 -10 -17 -35 -3 -67 -33 -67 -64
0 -31 -14 -22 -32 21 -16 38 -18 40 -62 40 -56 0 -60 16 -7 25 55 9 67 26 37
54 -31 29 -67 24 -84 -11 -11 -23 -31 -33 -135 -67 -350 -114 -795 -197 -1226
-231 -171 -13 -619 -13 -776 0 -337 29 -585 67 -870 135 -130 31 -404 110
-452 130 -32 13 -33 13 -33 -9 0 -62 33 -106 80 -106 17 0 21 -4 16 -17 -4 -9
-1 -20 6 -25 9 -6 5 -7 -9 -3 -30 8 -61 -2 -73 -25 -14 -25 -2 -50 23 -50 11
0 93 -20 181 -45 570 -158 1005 -219 1546 -217 785 3 1485 153 2105 451 169
81 177 86 140 89 -104 7 -291 43 -327 62 -29 16 -34 10 -9 -10z"/>
<path d="M2867 2133 c-28 -4 -28 -5 20 -35 50 -33 215 -112 317 -154 32 -13
68 -31 78 -41 18 -16 18 -17 -3 -39 l-22 -23 24 -5 c13 -3 41 -7 62 -10 33 -4
37 -3 37 18 0 29 -26 52 -67 61 -48 10 -49 23 -3 35 58 16 97 88 79 150 -4 16
-7 19 -8 8 -1 -15 -11 -18 -68 -18 -90 0 -267 25 -322 44 -43 16 -67 17 -124
9z"/>
</g>
</svg>
